/* XPM */
static char *video_xpm_data[] = {
/* columns rows colors chars-per-pixel */
"32 31 9 1",
"  c Gray0",
". c Gray50",
"X c Blue",
"o c Green",
"O c Cyan",
"+ c Red",
"@ c Yellow",
"# c Gray75",
"$ c Gray100",
/* pixels */
"################               #",
"##                XXXXXXXXXXXX #",
"## +++++++++ OOOOO XXXXXXXXXXX #",
"## ++++++++ OOOOOOO XXXXXXXXXX #",
"## +++++++ OOOOOOOOO XXXXXXXXX #",
"## +++++++ OOOOOOOOO XXXXXXXXX #",
"## +++++++ OOOOOOOOO XXXXXXXXX #",
"## +++++++ OOOOOOOOO XXXXXXXXX #",
"## ++++++++ OOOOOOO XXXX     X #",
"           + OOOOO XXXX ooooo  #",
" ooooooooo +      XXXX ooooooo #",
" ooooooooo + @@@ XXXX ooooooooo ",
" ooooooooo + @@@      ooooooooo ",
" ooooooooo   @@@@@@@@ ooooooooo ",
" ooooooooo # @@@@@@@@ ooooooooo ",
" ooooooo              ooooooooo ",
" ooooooo .........     ooooooo #",
" ooooooo ........ @@@@@ ooooo ##",
" ooooooo ....... @@@@@@@      ##",
" oo      ...... @@@@@@@@@@ #####",
"    OOOO ...... @@@@@@@@@@      ",
"### OO     .... @@@@@@@@@@ $$$$ ",
"### O +++++ ... @@@@@@@@@@ $$$$ ",
"###  +++++++ .. @@@@@@@@@@ $$$$ ",
"### +++++++++ .. @@@@@@@@ $$$$$ ",
"### +++++++++ ... @@@@@@ $$$$$$ ",
"### +++++++++           $$$$$$$ ",
"###  +++++++ OO ### $$$$$$$$$$$ ",
"### O +++++ OOO ### $$$$$$$$$$$ ",
"### OO     OOOO ### $$$$$$$$$$$ ",
"###             ###             "
};

